<?xml version="1.0" encoding="UTF-8"?>
<!DOCTYPE svg PUBLIC "-//W3C//DTD SVG 1.1//EN" "http://www.w3.org/Graphics/SVG/1.1/DTD/svg11.dtd">
<svg version="1.1" xmlns="http://www.w3.org/2000/svg" xmlns:xlink="http://www.w3.org/1999/xlink" x="0" y="0" width="590" height="306" viewBox="0, 0, 590, 306">
  <g id="Layer_1">
    <path d="M561.652,91.138 L563.134,92.089 L563.543,92.352 L456.38,259.349 L455.946,257.907 L455.926,257.842 L455.95,257.805 L561.652,91.138 z M562.179,85.059 L563.034,85.603 L562.391,86.619 L456.969,252.85 L456.964,251.42 L561.139,84.4 L562.179,85.059 z M561.223,78.034 L562.531,78.853 L457.566,246.348 L457.235,244.867 L560.625,77.661 L561.223,78.034 z M559.601,64.182 L561.516,65.354 L559.863,68.052 L458.753,233.35 L458.427,232.29 L559.385,64.537 L559.601,64.182 z M559.089,57.441 L561.009,58.604 L559.952,60.353 L559.025,61.885 L459.345,226.853 L459.682,225.069 L559.089,57.441 z M558.19,55.751 L460.77,219.956 L459.507,218.728 L557.705,52.175 L558.572,50.702 L560.503,51.854 L558.19,55.751 z M516.181,207.386 L464.919,288.24 L464.631,288.693 L464.102,288.592 L362.042,269.43 C345.045,266.173 328.038,262.952 311.069,259.52 L285.632,254.298 C277.48,252.517 269.353,250.915 261.213,248.753 C259.521,254.803 256.802,260.917 252.017,265.414 C249.506,267.739 246.4,269.494 243.051,270.308 C239.707,271.127 236.21,271.115 232.893,270.507 C226.31,269.327 219.773,266.347 215.339,261.093 C211.09,256.105 208.882,249.706 208.696,243.189 L110.021,245.857 L10.537,248.179 L109.986,244.678 L209.446,241.547 L210.275,241.519 L210.279,242.395 C210.309,248.683 212.478,255.192 216.634,259.977 C220.774,264.846 226.918,267.635 233.199,268.736 C236.336,269.298 239.564,269.28 242.603,268.523 C245.644,267.767 248.434,266.176 250.732,264.032 C255.344,259.652 257.967,253.556 259.582,247.278 L259.821,246.344 L260.812,246.609 C269.066,248.809 277.622,250.453 286.059,252.255 L311.502,257.362 L362.433,267.41 L463.869,286.927 L515.199,206.761 L567.131,126.336 L516.181,207.386 z M126.578,220.11 C186.891,219.458 225.866,222.485 235.186,228.454 C213.294,220.805 97.586,223.58 55.715,225.309 C33.329,226.232 24.767,226.955 21.388,227.525 L21.255,225.615 C27.626,223.774 75.532,220.66 126.578,220.11 M184.845,166.094 C170.31,160.654 151.688,155.861 129.258,154.401 C104.776,152.81 75.755,155.199 42.587,165.065 C53.988,158.602 66.859,154.262 80.009,151.488 C88.323,149.745 96.805,148.623 105.342,148.085 C113.881,147.558 122.483,147.58 131.052,148.42 C122.588,146.837 113.953,146.057 105.3,145.838 C96.642,145.63 87.946,146.013 79.286,147.056 C75.295,147.537 71.31,148.167 67.345,148.949 C73.506,146.78 79.866,145.039 86.293,143.67 C94.63,141.908 103.138,140.762 111.703,140.216 C120.267,139.687 128.898,139.709 137.485,140.651 C129.011,138.967 120.339,138.186 111.658,137.969 C102.97,137.771 94.246,138.178 85.561,139.239 C81.577,139.727 77.6,140.363 73.641,141.147 C79.794,138.978 86.135,137.229 92.576,135.853 C100.939,134.072 109.471,132.903 118.063,132.349 C126.654,131.817 135.313,131.837 143.918,132.88 C135.434,131.097 126.727,130.316 118.017,130.103 C109.3,129.911 100.547,130.341 91.837,131.422 C87.854,131.92 83.88,132.56 79.925,133.35 C86.079,131.178 92.421,129.422 98.859,128.036 C107.248,126.234 115.806,125.044 124.424,124.482 C133.041,123.946 141.731,123.963 150.352,125.111 C141.86,123.224 133.113,122.444 124.376,122.236 C115.629,122.052 106.848,122.506 98.113,123.606 C94.132,124.11 90.162,124.758 86.209,125.55 C92.365,123.378 98.706,121.616 105.144,120.218 C113.557,118.398 122.141,117.184 130.786,116.615 C139.427,116.074 148.149,116.087 156.785,117.339 C148.286,115.351 139.501,114.572 130.735,114.37 C121.958,114.193 113.15,114.67 104.389,115.789 C100.412,116.302 96.442,116.955 92.493,117.753 C98.651,115.58 104.991,113.811 111.429,112.401 C119.867,110.561 128.477,109.325 137.148,108.748 C145.815,108.203 154.569,108.211 163.218,109.57 C154.713,107.473 145.889,106.701 137.096,106.502 C128.289,106.334 119.453,106.834 110.667,107.973 C106.691,108.494 102.724,109.154 98.776,109.955 C104.937,107.778 111.277,106.003 117.713,104.586 C126.177,102.725 134.813,101.467 143.511,100.88 C152.205,100.332 160.991,100.331 169.651,101.799 C161.143,99.595 152.277,98.829 143.457,98.634 C134.62,98.477 125.756,98.999 116.945,100.159 C112.97,100.686 109.005,101.351 105.061,102.155 C111.223,99.979 117.564,98.198 123.999,96.768 C132.488,94.883 141.149,93.616 149.875,93.017 C158.593,92.457 167.413,92.451 176.084,94.028 C167.574,91.716 158.665,90.953 149.818,90.772 C140.951,90.625 132.059,91.158 123.222,92.342 C119.25,92.877 115.288,93.548 111.345,94.357 C117.51,92.179 123.851,90.391 130.285,88.951 C138.798,87.045 147.487,85.764 156.239,85.155 C164.982,84.579 173.837,84.57 182.518,86.259 C174.005,83.837 165.054,83.075 156.181,82.909 C147.284,82.775 138.363,83.319 129.501,84.527 C125.53,85.068 121.57,85.745 117.63,86.558 C123.796,84.378 130.137,82.585 136.57,81.134 C145.11,79.208 153.825,77.916 162.604,77.293 C171.373,76.701 180.263,76.688 188.952,78.489 C180.438,75.955 171.443,75.196 162.543,75.048 C153.617,74.925 144.668,75.483 135.78,76.711 C131.811,77.26 127.853,77.942 123.915,78.761 C130.083,76.578 136.424,74.778 142.857,73.318 C151.422,71.372 160.165,70.067 168.969,69.43 C177.763,68.833 186.691,68.795 195.385,70.718 C186.874,68.065 177.832,67.328 168.906,67.184 C159.952,67.077 150.973,67.648 142.059,68.896 C138.093,69.451 134.139,70.14 130.204,70.96 C136.373,68.777 142.713,66.972 149.143,65.501 C157.735,63.534 166.504,62.218 175.335,61.568 C184.154,60.969 193.12,60.901 201.818,62.948 C193.311,60.17 184.222,59.463 175.27,59.323 C166.287,59.229 157.278,59.812 148.339,61.081 C144.378,61.643 140.429,62.335 136.497,63.159 C142.667,60.976 149.003,59.165 155.431,57.686 C164.047,55.696 172.844,54.37 181.703,53.708 C190.545,53.105 199.551,53.004 208.251,55.179 C199.749,52.275 190.612,51.599 181.636,51.462 C172.622,51.381 163.585,51.977 154.62,53.266 C150.664,53.834 146.72,54.531 142.792,55.358 C148.961,53.174 155.295,51.357 161.718,49.868 C170.361,47.861 179.185,46.522 188.07,45.845 C196.937,45.241 205.984,45.104 214.684,47.407 C206.189,44.378 197.003,43.735 188.001,43.6 C178.958,43.533 169.891,44.14 160.901,45.452 C156.949,46.025 153.009,46.728 149.087,47.558 C155.254,45.374 161.586,43.55 168.006,42.053 C176.676,40.032 185.526,38.669 194.438,37.983 C203.329,37.378 212.418,37.202 221.118,39.637 C212.631,36.477 203.393,35.871 194.367,35.739 C185.294,35.68 176.2,36.314 167.184,37.636 C163.236,38.218 159.299,38.924 155.382,39.756 C161.549,37.571 167.878,35.743 174.295,34.237 C182.992,32.204 191.867,30.817 200.808,30.122 C209.722,29.516 218.856,29.299 227.552,31.867 C219.076,28.575 209.785,28.007 200.734,27.876 C191.631,27.827 182.51,28.485 173.465,29.821 C169.521,30.408 165.59,31.12 161.677,31.954 C167.845,29.769 174.17,27.935 180.585,26.42 C189.309,24.377 198.209,22.964 207.178,22.259 C216.115,21.653 225.295,21.393 233.984,24.097 C225.522,20.67 216.176,20.144 207.102,20.015 C197.968,19.976 188.819,20.659 179.748,22.006 C175.809,22.599 171.88,23.315 167.971,24.153 C174.139,21.968 180.463,20.128 186.875,18.604 C195.626,16.549 204.552,15.111 213.549,14.399 C222.508,13.791 231.735,13.485 240.417,16.327 C231.969,12.763 222.569,12.282 213.47,12.155 C204.307,12.124 195.131,12.832 186.032,14.192 C177.523,15.486 169.069,17.323 160.747,19.817 C234.151,-10.653 315.058,19.423 334.849,36.181 L239.001,198.687 C233.109,193.026 215.036,177.392 184.845,166.094 M551.279,50.315 C541.102,67.452 469.247,188.426 456.665,207.974 C405.471,170.077 357.724,164.762 325.017,167.699 C326.283,167.514 327.554,167.347 328.825,167.194 C339.111,166.001 349.562,165.652 359.963,166.545 C349.649,164.907 339.13,164.496 328.636,164.957 C318.138,165.455 307.648,167.009 297.396,169.667 C291.858,171.098 286.4,172.863 281.038,174.917 C288.402,171.068 296.103,167.8 304.07,165.228 C313.815,162.07 323.934,159.932 334.197,158.797 C344.457,157.695 354.869,157.431 365.226,158.392 C354.961,156.686 344.485,156.19 334.027,156.559 C323.568,156.957 313.104,158.384 302.855,160.902 C297.037,162.328 291.3,164.121 285.666,166.235 C293.271,162.315 301.24,159.036 309.482,156.484 C319.229,153.463 329.334,151.448 339.568,150.408 C349.803,149.397 360.178,149.212 370.489,150.241 C360.276,148.469 349.844,147.894 339.422,148.167 C328.997,148.467 318.559,149.766 308.317,152.147 C302.256,153.552 296.269,155.348 290.393,157.501 C298.197,153.509 306.423,150.271 314.896,147.753 C324.645,144.866 334.734,142.968 344.941,142.025 C355.147,141.101 365.485,141 375.752,142.089 C365.587,140.258 355.2,139.598 344.816,139.783 C334.429,139.989 324.017,141.162 313.783,143.4 C307.535,144.773 301.349,146.532 295.284,148.697 C303.234,144.66 311.662,141.499 320.311,139.032 C330.061,136.276 340.134,134.502 350.313,133.647 C360.494,132.81 370.792,132.791 381.016,133.938 C370.898,132.048 360.556,131.307 350.209,131.403 C339.858,131.516 329.478,132.567 319.253,134.666 C312.837,136 306.464,137.707 300.229,139.873 C308.306,135.796 316.922,132.728 325.729,130.319 C335.479,127.698 345.534,126.041 355.687,125.277 C365.84,124.523 376.099,124.586 386.278,125.788 C376.211,123.843 365.912,123.021 355.603,123.033 C345.289,123.054 334.938,123.981 324.725,125.94 C318.151,127.229 311.605,128.885 305.206,131.046 C313.418,126.972 322.181,123.923 331.148,121.617 C340.897,119.129 350.936,117.587 361.06,116.913 C371.183,116.242 381.406,116.381 391.544,117.636 C381.521,115.642 371.267,114.74 360.995,114.669 C350.721,114.599 340.399,115.407 330.198,117.227 C323.41,118.451 316.655,120.095 310.053,122.282 C318.444,118.194 327.389,115.128 336.57,112.926 C346.318,110.57 356.338,109.144 366.433,108.554 C376.529,107.962 386.712,108.182 396.806,109.485 C386.832,107.443 376.622,106.463 366.387,106.309 C356.15,106.153 345.861,106.844 335.674,108.524 C328.648,109.671 321.668,111.317 314.84,113.539 C323.437,109.457 332.586,106.344 341.993,104.245 C351.738,102.022 361.74,100.707 371.805,100.203 C381.873,99.692 392.017,99.989 402.071,101.335 C392.142,99.25 381.976,98.192 371.778,97.957 C361.579,97.714 351.323,98.291 341.151,99.832 C333.855,100.908 326.591,102.575 319.488,104.849 C328.324,100.726 337.758,97.649 347.418,95.575 C357.161,93.483 367.141,92.279 377.178,91.857 C387.217,91.429 397.321,91.802 407.333,93.183 C397.449,91.064 387.327,89.931 377.169,89.61 C367.01,89.284 356.785,89.747 346.63,91.151 C339.072,92.189 331.559,93.836 324.206,96.128 C333.264,91.986 342.957,88.956 352.845,86.922 C362.582,84.947 372.542,83.86 382.55,83.516 C392.559,83.171 402.624,83.618 412.599,85.031 C402.755,82.88 392.678,81.673 382.56,81.271 C372.438,80.866 362.247,81.209 352.111,82.49 C344.282,83.513 336.484,85.119 328.85,87.432 C329.271,87.242 329.69,87.042 330.115,86.857 C339.056,82.976 348.562,80.199 358.279,78.309 C368.001,76.412 377.945,75.451 387.92,75.182 C397.9,74.93 407.928,75.428 417.862,76.88 C408.063,74.691 398.027,73.433 387.948,72.936 C377.865,72.456 367.708,72.671 357.598,73.868 C349.48,74.828 341.388,76.401 333.459,78.737 C334.145,78.434 334.829,78.124 335.524,77.836 C344.488,74.1 354.006,71.473 363.713,69.706 C373.427,67.944 383.344,67.035 393.29,66.859 C403.24,66.703 413.23,67.23 423.125,68.731 C413.369,66.493 403.377,65.208 393.336,64.614 C383.29,64.04 373.171,64.201 363.085,65.257 C354.678,66.147 346.288,67.671 338.059,70.026 C339.011,69.615 339.968,69.209 340.935,68.824 C349.924,65.236 359.451,62.76 369.148,61.114 C378.854,59.473 388.744,58.66 398.66,58.556 C408.579,58.469 418.534,59.04 428.39,60.578 C418.675,58.305 408.723,56.975 398.724,56.311 C388.717,55.664 378.633,55.728 368.571,56.658 C359.901,57.469 351.234,58.924 342.731,61.282 C343.928,60.776 345.131,60.287 346.346,59.822 C355.362,56.384 364.896,54.058 374.583,52.531 C384.276,51.013 394.143,50.291 404.029,50.255 C413.915,50.238 423.836,50.853 433.652,52.426 C423.98,50.116 414.068,48.745 404.106,48.01 C394.141,47.295 384.094,47.265 374.059,48.07 C365.132,48.795 356.2,50.182 347.426,52.531 C348.859,51.938 350.3,51.364 351.761,50.832 C360.803,47.546 370.342,45.369 380.016,43.96 C389.7,42.561 399.542,41.929 409.396,41.959 C419.251,42.008 429.137,42.667 438.916,44.276 C429.284,41.932 419.413,40.516 409.489,39.715 C399.562,38.934 389.554,38.811 379.543,39.492 C370.331,40.131 361.103,41.454 352.027,43.803 C353.725,43.112 355.438,42.454 357.176,41.853 C366.242,38.72 375.787,36.69 385.45,35.398 C395.122,34.114 404.937,33.574 414.762,33.668 C424.588,33.782 434.437,34.481 444.181,36.124 C434.589,33.747 424.757,32.29 414.871,31.423 C404.982,30.578 395.01,30.367 385.029,30.925 C375.531,31.47 366.011,32.714 356.63,35.059 C358.59,34.274 360.579,33.545 362.595,32.885 C371.685,29.909 381.232,28.025 390.883,26.846 C400.543,25.678 410.333,25.222 420.129,25.381 C429.922,25.559 439.738,26.299 449.443,27.972 C439.892,25.566 430.097,24.067 420.252,23.137 C410.398,22.228 400.465,21.928 390.513,22.37 C383.453,22.692 376.374,23.389 369.337,24.621 C414.336,13.113 488.174,16.483 551.279,50.315 M286.697,126.664 L286.735,126.71 L286.63,126.776 L286.697,126.664 z M67.222,237.629 L22.148,238.383 L22.127,238.087 L67.222,237.629 z M127.937,231.378 C224.35,230.352 235.513,232.872 236.559,233.587 L236.63,233.675 L21.97,235.838 L21.832,233.871 C30.594,233.188 76.413,231.923 127.937,231.378 M21.675,231.628 L21.541,229.712 C29.257,228.448 76.96,226.269 128.062,225.734 C190.92,225.076 231.051,227.168 236.3,231.347 C215.622,226.401 50.555,230.356 29.208,231.242 C25.415,231.397 23.108,231.512 21.675,231.628 M582.337,100.219 L564.256,100.329 L563.249,100.335 L564.05,99.101 L562.163,97.878 L455.688,263.966 L455.043,264.973 L455.617,265.65 L455.784,265.846 L562.661,101.238 L563.166,104.937 L562.679,104.616 L455.416,270.385 L454.566,271.7 L455.19,272.347 L455.344,272.114 L563.509,107.446 L564.127,111.979 L563.189,111.356 L453.25,276.813 L451.895,276.549 L452.046,275.771 L238.226,233.819 C248.325,232.59 444.339,269.478 451.585,273.932 L453.161,272.336 C449.234,268.452 255.874,231.74 238.853,231.557 C243.909,230.015 278.595,233.875 345.692,246.269 C401.458,256.574 450.305,267.652 453.227,270.539 L454.181,268.634 C446.895,261.437 267.915,228.128 241.492,229.045 C240.9,229.067 240.389,229.109 239.914,229.153 C241.012,228.831 242.908,228.502 246.198,228.388 C286.78,226.979 443.964,257.848 452.672,266.451 L454.249,264.852 C444.177,254.904 282.718,224.872 246.12,226.143 C243.947,226.218 242.29,226.388 241.012,226.609 C242.971,225.946 246.317,225.327 252.075,225.129 C300.023,223.458 442.092,251.715 453.214,262.708 L454.791,261.111 C441.979,248.449 297.938,221.292 251.997,222.884 C247.879,223.025 244.592,223.388 242.093,223.978 C245.089,222.835 250.192,221.842 258.838,221.544 C313.769,219.631 440.379,245.747 453.759,258.968 L455.335,257.37 C440.577,242.784 310.141,217.521 258.761,219.298 C252.274,219.523 247.215,220.142 243.501,221.167 C247.613,219.505 254.534,218.07 266.144,217.669 C321.731,215.748 437.791,238.914 454.301,255.226 L455.877,253.628 C439.108,237.053 322.019,213.494 266.067,215.422 C256.972,215.74 249.86,216.716 244.773,218.337 C250.992,215.628 260.771,213.987 273.689,213.542 C331.694,211.543 436.666,233.519 454.846,251.486 L456.278,250.033 L456.422,249.888 L456.29,249.764 C437.474,231.536 331.895,209.279 273.611,211.295 C261.874,211.701 252.751,213.058 246.284,215.335 C253.931,211.829 265.745,209.727 281.211,209.195 C341.021,207.132 435.432,228.021 455.388,247.744 L456.42,246.698 L456.964,246.145 C456.807,245.989 456.63,245.834 456.464,245.677 C435.196,225.784 340.919,204.885 281.133,206.95 C266.77,207.445 255.623,209.231 247.752,212.263 C256.825,207.876 270.622,205.28 288.488,204.663 C348.421,202.582 434.484,222.813 455.932,244.003 L456.56,243.364 L457.509,242.405 C457.23,242.13 456.936,241.855 456.636,241.581 C433.508,220.363 348.034,200.348 288.412,202.417 C275.702,202.856 260.257,204.508 248.898,209.305 C259.383,203.861 275.145,200.671 295.397,199.971 C355.137,197.897 433.424,217.487 456.475,240.26 L456.702,240.032 L457.828,238.888 L458.157,239.849 L560.703,74.233 L562.024,72.104 L560.268,71.017 L560.113,70.922 L457.846,238.467 C457.51,238.141 457.167,237.816 456.81,237.489 C431.969,214.869 354.553,195.675 295.321,197.727 C281.041,198.219 263.573,200.19 250.539,206.039 C262.403,199.633 279.792,195.913 301.833,195.151 C360.021,193.152 432.356,212.382 456.857,236.367 L457.019,236.521 L458.596,234.923 C458.082,234.415 457.538,233.91 456.982,233.404 C430.831,209.698 359.363,190.913 301.756,192.907 C286.563,193.431 267.95,195.606 253.468,202.105 C266.693,195.128 285.289,190.997 307.756,190.221 C364.226,188.263 430.914,207.092 457.03,232.268 C457.206,232.439 457.389,232.608 457.562,232.777 L458.052,230.94 C457.749,230.644 457.438,230.346 457.124,230.05 C430.386,204.697 364.41,186.026 307.679,187.975 C291.438,188.539 271.416,191.005 255.46,198.509 C269.903,190.64 289.661,186.015 313.146,185.204 C367.975,183.299 429.529,201.738 457.202,228.188 C457.5,228.471 457.815,228.752 458.105,229.036 L458.782,226.853 C458.313,226.388 457.81,225.934 457.317,225.474 C429.022,198.944 368.068,181.067 313.07,182.96 C292.328,183.676 274.414,187.352 260.375,193.6 C260.873,193.236 261.374,192.875 261.879,192.514 C276.882,185.16 296.017,180.871 318.033,180.11 C370.394,178.299 428.563,196.738 457.377,224.092 C457.8,224.493 458.238,224.889 458.648,225.295 L459.138,223.363 C458.602,222.833 458.032,222.31 457.475,221.786 C428.17,194.256 370.625,176.047 317.955,177.865 C301.677,178.427 286.934,180.907 274.207,185.117 C279.256,182.925 284.683,180.887 290.459,179.089 C300.333,176.749 311.044,175.347 322.432,174.954 C373.303,173.204 427.198,191.238 457.551,219.991 C458.099,220.51 458.658,221.026 459.193,221.554 L460.77,219.956 C459.767,218.964 458.732,217.988 457.676,217.021 C426.669,188.663 372.977,170.966 322.356,172.708 C321.315,172.744 320.283,172.792 319.255,172.843 C319.638,172.794 320.013,172.74 320.396,172.692 C352.415,168.831 401.564,172.576 454.529,212.005 C454.977,212.337 455.424,212.653 455.871,212.992 L457.737,214.399 L459.068,212.48 C467.253,200.703 552.699,56.723 556.332,50.6 L557.273,49.013 L557.519,48.602 L555.48,47.484 C542.554,40.392 529.153,34.579 515.61,29.913 C503.332,25.684 490.938,22.396 478.678,19.953 C462.376,16.706 446.313,14.951 431.067,14.457 C422.664,14.184 414.513,14.297 406.706,14.752 C396.369,15.356 386.645,16.563 377.75,18.282 C372.627,19.273 367.782,20.435 363.256,21.749 C356.759,23.637 350.918,25.838 345.873,28.31 C342.94,29.743 340.271,31.266 337.898,32.87 C337.756,32.745 337.603,32.62 337.455,32.494 C335.452,30.799 333.072,29.071 330.334,27.347 C328.7,26.318 326.938,25.289 325.063,24.267 C322.212,22.714 319.1,21.179 315.741,19.687 C313.568,18.721 311.286,17.773 308.919,16.85 C305.125,15.366 301.097,13.943 296.854,12.61 C293.857,11.67 290.756,10.773 287.564,9.93 C282.028,8.467 276.211,7.169 270.174,6.078 C265.66,5.262 261.022,4.564 256.284,4.003 C247.793,2.999 238.984,2.441 229.99,2.442 C223.214,2.445 216.337,2.763 209.412,3.453 C197.415,4.649 185.283,6.953 173.322,10.634 C164.991,13.198 156.745,16.441 148.684,20.429 C144.347,22.573 140.061,24.923 135.849,27.521 L135.322,27.97 C131.937,31.921 126.822,38.144 120.599,45.836 C115.666,51.931 110.032,58.955 104.011,66.5 C94.329,78.633 83.641,92.121 73.224,105.315 C45.899,139.92 20.445,172.476 19.956,173.099 L17.079,176.781 L18.169,178.25 L22.233,176.693 C21.325,177.388 20.546,178.079 19.888,178.764 C19.332,179.341 18.855,179.914 18.486,180.478 L20.368,181.705 C21.496,179.973 23.86,178.057 27.252,176.086 C29.734,174.646 32.772,173.177 36.309,171.731 C43.464,169.396 50.421,167.43 57.194,165.766 C67.812,163.16 77.954,161.335 87.607,160.162 C128.58,155.183 160.748,161.91 183.038,170.212 C191.621,173.412 199.214,177.001 205.821,180.611 C209.141,182.623 212.398,184.807 215.575,187.177 C180.181,163.139 133.528,160.638 105.44,161.799 C63.015,163.558 24.566,175.22 18.534,184.469 L20.415,185.698 C25.369,178.103 60.99,165.89 105.532,164.043 C134.223,162.86 182.504,165.506 217.721,191.436 C183.194,168.457 134.929,166.248 105.807,167.454 C62.557,169.247 24.084,180.023 18.58,188.463 L20.46,189.689 C24.957,182.795 60.476,171.58 105.899,169.698 C135.76,168.461 185.956,170.826 220.102,195.835 C186.532,173.798 136.32,171.861 105.983,173.111 C62.017,174.932 23.603,184.827 18.626,192.457 L20.507,193.682 C24.548,187.489 59.891,177.271 106.075,175.359 C136.988,174.07 188.762,176.101 221.71,199.627 C189.183,179.052 137.333,177.472 105.897,178.778 C61.368,180.621 23.121,189.626 18.673,196.446 L20.554,197.673 C24.053,192.306 59.914,182.93 105.992,181.022 C132.147,179.934 190.539,180.505 223.861,203.84 C190.732,183.58 132.151,183.347 105.472,184.45 C64.417,186.152 23.067,193.773 18.72,200.439 L20.602,201.665 C23.657,196.982 59.102,188.621 105.564,186.695 C132.894,185.559 194.062,185.807 225.81,207.753 C194.025,188.891 132.527,188.978 104.588,190.137 C62.704,191.872 22.601,198.552 18.767,204.432 L20.648,205.659 C23.262,201.652 58.11,194.31 104.681,192.378 C133.295,191.194 197.456,191.096 227.505,211.445 C197.118,194.174 132.37,194.622 103.003,195.84 C61.401,197.566 22.061,203.445 18.814,208.423 L20.694,209.65 C22.869,206.317 56.844,200.003 103.097,198.085 C133.264,196.836 201.103,196.359 229.226,215.092 C200.385,199.443 131.561,200.281 100.429,201.569 C63.454,203.103 21.854,207.824 18.861,212.415 L20.739,213.645 C23.018,210.538 66.806,204.007 120.719,203.251 C174.637,202.494 213.461,207.966 230.4,218.447 C201.551,204.294 122.191,206.265 96.141,207.345 C65.833,208.601 22.003,212.222 18.951,216.354 L18.907,216.407 L18.957,216.441 L20.757,217.675 C24.605,213.758 105.727,206.054 170.005,209.777 C200.844,211.545 222.042,215.726 232.135,221.929 C205.202,209.524 117.603,212.007 89.075,213.191 C66.345,214.132 23.252,216.779 19.181,220.164 C19.086,220.242 19.005,220.323 18.953,220.4 L19.206,220.59 L20.737,221.743 C23.803,219.362 72.723,215.075 124.912,214.483 C182.58,213.836 221.412,217.748 233.76,225.305 C206.85,214.161 90.974,218.582 76.829,219.166 C60.718,219.833 23.977,221.606 19.416,224.066 C19.216,224.174 19.072,224.283 19,224.393 L19.453,224.688 L20.515,225.38 L4,247.754 L5.396,256.568 C5.396,256.568 79.285,253.711 137.101,252.338 C157.972,251.842 176.743,251.543 189.191,251.637 C198.2,251.707 203.901,251.986 204.679,252.549 C204.882,254.453 206.243,258.73 209.316,263.217 C214.176,270.318 223.335,277.951 239.069,277.542 C240.083,277.514 241.047,277.441 241.99,277.349 C262.757,275.299 267.083,257.827 267.083,257.827 L270.678,258.62 L301.032,265.309 L354.723,277.147 L379.08,282.515 L423.24,292.25 L458.554,300.033 L469.857,302.527 L584.582,113.308 L582.337,100.219" fill="#0B0B09"/>
    <path d="M206.31,102.736 L206.349,102.754 L206.31,102.736" fill="#0B0B09"/>
  </g>
</svg>