<svg xmlns="http://www.w3.org/2000/svg" width="256" height="256"><path fill-opacity=".016" d="M0 128.004v128.004l128.25-.254 128.25-.254.254-127.75L257.008 0H0v128.004m.485.496c0 70.4.119 99.053.265 63.672.146-35.38.146-92.98 0-128C.604 29.153.485 58.1.485 128.5" fill="#1976D2" fill-rule="evenodd"/><path fill-opacity=".342" d="M106.5 1.591C53.963 10.861 12.693 51.328 2.34 103.725.189 114.61-.054 139.255 1.882 150c3.316 18.393 12.368 39.42 23.341 54.22 18.552 25.021 46.615 42.915 77.217 49.236 10.268 2.121 40.852 2.121 51.12 0 45.335-9.364 83.026-43.3 96.8-87.155 8.266-26.317 8.279-50.225.044-76.472-14.361-45.767-53.753-80.061-101.33-88.214-11.482-1.967-31.495-1.979-42.574-.024M117 58.729c-1.772.674-2.963 2.28-2.985 4.021-.009.744.795.44 1.985-.75 1.1-1.1 2.648-2 3.441-2 .793 0 1.719-.45 2.059-1 .657-1.063-1.999-1.223-4.5-.271m9.397.438c-.283.458 1.087.833 3.044.833s3.559-.174 3.559-.387c0-.821-6.116-1.234-6.603-.446m-24.167 1.719c-2.898 1.001-5.546 2.097-5.884 2.435-.338.338-.036 2.014.672 3.724 1.024 2.471 1.718 2.985 3.385 2.506 1.153-.331 4.122-.865 6.597-1.186l4.5-.584-.351-4.391c-.406-5.086-.98-5.247-8.919-2.504m37.52-1.224c.688.278 1.813.278 2.5 0 .688-.277.125-.504-1.25-.504s-1.937.227-1.25.504m32.427 4.935c.282 1.393 16.611 8.948 17.474 8.085 1.006-1.006-3.681-5.253-8.033-7.279-6.062-2.823-9.916-3.152-9.441-.806M69.18 68.69c-4.81 1.696-12.733 8.606-11.729 10.23.409.662 2.007.185 4.361-1.301 2.044-1.291 6.102-3.555 9.018-5.033 2.917-1.478 5.132-3.199 4.924-3.824-.575-1.724-1.849-1.738-6.574-.072m105.899 28.06c-.062 2.539.331 3.25 1.796 3.25 3.329 0 8.125-1.226 8.125-2.078 0-.99-6.986-3.049-8.071-2.378-.417.258-.986-.097-1.265-.788-.278-.691-.542.207-.585 1.994m-104.34-.812c-3.84.767-5.462 1.673-4.577 2.558.956.956 9.722 1.75 12.267 1.111 2.583-.648 3.658-3.595 1.321-3.621-.687-.007-2.15-.19-3.25-.406-1.1-.216-3.692-.055-5.761.358M126.5 98c-.369.596.843 1 3 1s3.369-.404 3-1c-.34-.55-1.69-1-3-1s-2.66.45-3 1m-9.5 1c0 .55.648 1 1.441 1s1.719-.45 2.059-1c.34-.55-.309-1-1.441-1-1.132 0-2.059.45-2.059 1m28.461 3.064c-.85 1.374-.558 1.622 2.94 2.501 2.06.517 2.694.397 2.192-.414-1.225-1.982-4.399-3.273-5.132-2.087m-44.589 2.623c-1.208 1.485-1.153 1.605.46 1 1.007-.378 2.245-.687 2.75-.687.505 0 .918-.45.918-1 0-1.595-2.627-1.157-4.128.687M105.5 112c-.731 1.183.248 1.183 3 0 1.928-.829 1.921-.862-.191-.93-1.205-.038-2.469.38-2.809.93m17.852 5.947c-4.868 2.07-3.483 3.053 4.303 3.053 6.985 0 7.618-.155 6.24-1.534-1.906-1.905-7.678-2.737-10.543-1.519M.37 128c0 5.775.165 8.137.367 5.25.202-2.887.202-7.612 0-10.5S.37 122.225.37 128m117.387 1.511c.519 2.713 5.506 7.489 7.82 7.489 1.963 0 1.858-.325-1.77-5.471-3.577-5.075-6.842-6.165-6.05-2.018m9.27-1.761c.015.412 1.326 2.317 2.914 4.233 2.804 3.382 2.944 3.431 4.868 1.69 1.089-.986 2.191-2.891 2.447-4.233.448-2.341.25-2.44-4.895-2.44-2.948 0-5.349.338-5.334.75" fill="#1976D2" fill-rule="evenodd"/><path fill-opacity=".631" d="M107.5 10.597C59.506 19.104 22.152 55.526 11.708 104c-3.931 18.244-2.317 44.982 3.737 61.906.867 2.423 1.347 4.636 1.066 4.917-.281.281-.511-.041-.511-.715 0-.674-.399-.979-.887-.678-.488.302-.867-.009-.843-.691.025-.681-.026-2.236-.112-3.455L14 163.067l-3.5 2.066C7.093 167.143 5.921 169 8.059 169c.582 0 .812.399.51.888-.301.488.809 4.178 2.467 8.2 15.119 36.664 44.943 62.315 85.642 73.659 9.268 2.583 11.007 2.738 30.822 2.745 21.974.008 24.776-.356 40-5.204 35.946-11.447 65.649-39.375 79.377-74.634 6.083-15.623 8.523-28.469 8.577-45.154.049-14.894-1.955-30.926-3.728-29.83-.606.374-.733.15-.306-.54.4-.648.416-2.599.035-4.334l-.693-3.155-1.444 2.43c-1.216 2.047-1.378 2.109-1.03.393.292-1.439-.108-2.035-1.366-2.035-.979 0-1.699.466-1.601 1.035.099.57-.417.912-1.145.761-.74-.153-1.026.208-.649.818.371.602 1.417.837 2.324.523 1.443-.5 1.462-.415.149.682-.853.712-1.395 2.545-1.257 4.252.134 1.65-.904-.814-2.308-5.477-13.239-43.982-50.076-76.811-94.816-84.497-10.869-1.868-29.365-1.835-40.119.071M62 57.5c-1.292 1.375-1.899 2.5-1.349 2.5s2.057-1.125 3.349-2.5c1.292-1.375 1.899-2.5 1.349-2.5S63.292 56.125 62 57.5m39.324 1.367C93.122 61.876 90 64.3 90 67.655c0 2.33.074 2.345 11.75 2.287 11.667-.057 23.442-1.425 16.75-1.945-1.65-.129-3.385-.165-3.855-.08-3.396.609-4.786-5.843-2.088-9.694 1.5-2.143 1.455-2.219-1.25-2.106-1.544.065-6.036 1.302-9.983 2.75m13.876.333c-1.651 1.651-1.521 5.8.181 5.8.76 0 2.583-1.575 4.051-3.5l2.67-3.5h-2.851c-1.568 0-3.391.54-4.051 1.2m10.181.05c-.405.688-1.422 2.322-2.26 3.631l-1.523 2.382 4.943-2.632c2.719-1.447 5.986-2.631 7.26-2.631 1.29 0 2.043-.443 1.699-1-.892-1.444-9.242-1.237-10.119.25M138 58.893c0 1.083 2.469 2.107 5.082 2.107 2.644 0 2.415-1.634-.332-2.37-3.193-.855-4.75-.769-4.75.263m34.25 3.138c-2.782 1.118-2.851 2.935-.239 6.256 2.287 2.907 8.277 5.314 15.239 6.123 5.235.608 5.476.264 3.362-4.797-1.012-2.422-2.828-4.04-6.697-5.968-5.573-2.777-7.952-3.106-11.665-1.614M66.5 67.383c-5.904 2.791-10.334 7.189-10.722 10.643-.24 2.132.173 2.517 2.989 2.789 3.844.37 12.718-3.533 15.868-6.979 6.862-7.508 2.095-11.289-8.135-6.453m108.146 25.639c-.35 1.75-.365 4.883-.033 6.961l.604 3.779 4.914-1.297c2.703-.712 5.23-1.221 5.617-1.13.387.091 1.152-1.108 1.699-2.664.852-2.424.668-3.075-1.286-4.55-1.255-.946-3.928-1.831-5.941-1.967-2.012-.135-3.947-.712-4.298-1.281-.352-.569-.926.398-1.276 2.149M72 91.652c-6.354 2.093-9.824 6.5-7.559 9.599 1.529 2.09 10.358 4.267 13.8 3.403 2.89-.725 4.005-4.362 3.082-10.049-.549-3.388-.803-3.6-4.204-3.526-1.99.043-4.294.301-5.119.573m15.345.891c-.867 2.261-.089 2.379 1.905.29 1.481-1.551 1.514-1.833.219-1.833-.843 0-1.798.694-2.124 1.543m58.905-.827c1.512.229 3.988.229 5.5 0s.275-.416-2.75-.416-4.262.187-2.75.416m19.922 2.807c-.148 2.189.372 4.164 1.354 5.146 1.459 1.459 1.568 1.186 1.284-3.209-.365-5.656-2.293-7.071-2.638-1.937m-48.505-.856c-.964.963-.82 6.12.188 6.743.794.491 2.883-1.458 6.065-5.66 1.2-1.585.998-1.75-2.131-1.75-1.901 0-3.756.3-4.122.667m10.714.583c-.405.688-1.383 2.263-2.174 3.5L124.77 100h7.115c6.301 0 7.115-.215 7.115-1.883 0-1.073-.904-2.12-2.101-2.433-1.156-.303-1.804-1.029-1.441-1.617.42-.678-.614-1.067-2.84-1.067-1.925 0-3.832.563-4.237 1.25m-17.499 1.5a5.707 5.707 0 0 0 0 1.5c.065.412-.978.75-2.317.75-3.71 0-7.565 1.771-7.565 3.475 0 .839-.627 1.525-1.393 1.525s-1.671.724-2.01 1.609c-.559 1.455 1.541 1.574 22.061 1.245 16.009-.256 22.792-.704 23.064-1.521.281-.843 1.121-.775 3.082.248 3.085 1.61 6.196 1.856 6.196.492 0-1.433-5.22-5.202-6.515-4.705-1.471.564-1.545-2.625-.084-3.603.677-.452.427-.74-.651-.75-1.18-.01-1.75.759-1.75 2.363 0 4.384-2.311 5.142-14.912 4.89-10.452-.209-11.76-.44-13.338-2.361-.963-1.171-1.75-2.979-1.75-4.018 0-1.771-1.861-2.771-2.118-1.139m134.197 10.833c.048 1.165.285 1.402.604.605.289-.722.253-1.585-.079-1.917-.332-.332-.568.258-.525 1.312m-73.94 2.45c-1.398 1.165-3.848 1.967-6.007 1.967h-3.646l.36 4.536c.311 3.909.57 4.364 1.867 3.287.967-.802 1.109-1.382.397-1.62-.611-.203-1.11-1.457-1.11-2.786 0-2.009.497-2.417 2.944-2.417 1.706 0 4.124-1.038 5.75-2.468 3.323-2.924 2.858-3.342-.555-.499m-80.87 2.66c.973.254 2.323.237 3-.037.677-.274-.119-.481-1.769-.461-1.65.02-2.204.244-1.231.498M99.5 112c.34.55 1.491 1 2.559 1s1.941.354 1.941.786c0 .432.787.817 1.75.855.963.039 2.537.408 3.5.821 1.023.44 1.75.322 1.75-.282 0-.568-.787-1.239-1.75-1.491-.963-.251.05-.457 2.25-.457s3.259.197 2.353.438c-.906.24-1.867 1.275-2.135 2.299-.267 1.024-1.456 2.012-2.642 2.196-4.829.75-1.617 2.383 6.151 3.128 7.627.73 28.651.163 29.613-.8.229-.229-.544-2.458-1.717-4.955L140.99 111h-21.054c-13.781 0-20.841.345-20.436 1m46.51.512c.809.975 1.654 1.182 2.377.582.616-.512 2.694-1.12 4.617-1.352 2.39-.289 1.639-.473-2.376-.582-5.138-.14-5.716.029-4.618 1.352M154.5 120c-1.908.82-1.897.863.25.93 1.238.038 2.25-.38 2.25-.93s-.113-.968-.25-.93c-.137.039-1.15.457-2.25.93m-43.72 6.927c-5.656.482-6.569.811-5.765 2.073.692 1.088.959 1.14.97.191.025-2.144 1.738-.421 2.251 2.264.261 1.366.09 2.247-.38 1.956-1.148-.709-1.079.303.179 2.655.912 1.703 2.166 1.934 10.5 1.934 5.206 0 9.465-.277 9.465-.616 0-2.332-9.239-12.354-10.332-11.207-.092.097-3.192.434-6.888.75m15.22-.393c0 .431 1.815 3.188 4.032 6.125l4.033 5.341 6.717-.116c3.695-.064 5.959-.316 5.03-.561-1.583-.418-1.583-.567 0-2.417.929-1.084 1.688-2.969 1.688-4.188 0-1.979.645-2.281 6-2.8 4.252-.412 2.029-.631-7.625-.75-7.494-.092-15.031-.449-16.75-.793-1.719-.344-3.125-.272-3.125.159M166.3 131c0 3.025.187 4.262.416 2.75.229-1.512.229-3.988 0-5.5-.229-1.513-.416-.275-.416 2.75m-57.3 5c0 .55.477 1 1.059 1s.781-.45.441-1-.816-1-1.059-1-.441.45-.441 1m-21.655 9.543c-.326.849-.311 1.824.031 2.167.343.343.624-.113.624-1.013 0-1.408 1.704-1.679 12.25-1.95l12.25-.315-12.281-.216c-10.282-.181-12.378.035-12.874 1.327m57.905-.801c3.713.192 9.787.192 13.5 0 3.713-.193.675-.35-6.75-.35s-10.463.157-6.75.35m-28.583 1.925c-1.232 1.232-.712 2.615.583 1.551.688-.564 2.375-1.233 3.75-1.486 2.215-.407 2.149-.475-.583-.596-1.696-.075-3.384.164-3.75.531m9.611.583c-.532.688-1.287 2.139-1.678 3.226-.662 1.84-.549 1.824 1.628-.221 1.287-1.208 4.124-2.478 6.306-2.821 5.674-.893 5.582-1.434-.245-1.434-2.853 0-5.464.543-6.011 1.25M142 153.833c0 .642-1.238 1.228-2.75 1.303-2.524.125-2.556.173-.385.585 2.433.461 5.035-1.154 3.818-2.371-.375-.376-.683-.158-.683.483m-26.25 1.829c.688.278 1.813.278 2.5 0 .688-.277.125-.504-1.25-.504s-1.937.227-1.25.504m7.519.031c.973.254 2.323.237 3-.037.677-.274-.119-.481-1.769-.461-1.65.02-2.204.244-1.231.498M8.333 161.544c0 .801.375 1.456.834 1.456.458 0 .833-.423.833-.941s-.375-1.173-.833-1.456c-.459-.283-.834.14-.834.941m162.539.206c-1.243 1.586-1.208 1.621.378.378 1.666-1.307 2.195-2.128 1.372-2.128-.207 0-.995.787-1.75 1.75M5.5 162c.34.55.816 1 1.059 1s.441-.45.441-1-.477-1-1.059-1-.781.45-.441 1m6 0c-.34.55-.141 1 .441 1S13 162.55 13 162s-.198-1-.441-1-.719.45-1.059 1m101.81 2.748c7.595.17 19.745.17 27-.001 7.254-.171 1.04-.31-13.81-.309-14.85 0-20.786.14-13.19.31M17 172.642c0 .537.7 1.849 1.555 2.917 1.467 1.83 1.487 1.798.365-.559-1.458-3.061-1.92-3.628-1.92-2.358M160.232 176c0 1.925.206 2.713.457 1.75.252-.963.252-2.537 0-3.5-.251-.963-.457-.175-.457 1.75M20 178.941c0 .518.445 1.216.989 1.552.566.35.734-.051.393-.941-.665-1.732-1.382-2.049-1.382-.611" fill="#1976D2" fill-rule="evenodd"/><path fill-opacity=".639" d="m118 9.639-10 1.469C64.518 17.492 25.178 53.344 14.022 96.75c-7.561 29.417-4.647 56.561 8.989 83.75 15.504 30.913 41.988 52.271 75.938 61.239 13.689 3.616 37.263 4.268 51.551 1.426 47.71-9.49 82.552-44.346 93.629-93.665.838-3.732 1.341-12.238 1.331-22.5-.015-14.746-.311-17.64-2.785-27.227-3.213-12.444-7.014-22.095-12.201-30.972-19.319-33.064-52.106-54.479-89.974-58.766-8.751-.99-17.41-1.143-22.5-.396m44.201 23.052c-.11 4.505-.651 8.469-1.201 8.809-.55.34-.948 2.054-.884 3.809.072 1.969.283 2.425.552 1.191.239-1.1.883-2.909 1.43-4.021.547-1.111.839-5.611.649-10l-.345-7.979-.201 8.191M102 27c0 .572 3.02 1 7.059 1 4.451 0 6.831-.369 6.441-1-.34-.55-3.516-1-7.059-1-3.627 0-6.441.437-6.441 1m20.5 0c.37.599 7.01 1 16.559 1C149.02 28 155 27.625 155 27c0-.626-6.186-1-16.559-1-10.785 0-16.344.349-15.941 1m-19.829 18.584c.38.991.853 1.187 1.263.523.412-.667 7.5-1.171 19.111-1.358l18.455-.297-19.719-.226c-17.637-.202-19.654-.059-19.11 1.358M146 44.937c0 .519 1.673.679 3.75.359 5.193-.802 5.352-1.296.417-1.296-2.292 0-4.167.422-4.167.937m-79.555 8.449C61.749 56.548 51 68.383 51 70.391c0 .99 8.566-6.719 16.728-15.053C70.603 52.402 72.622 50 72.214 50c-.407 0-3.004 1.524-5.769 3.386m99.634 8.559c-.07 7.505-.349 8.73-2.499 11-2.079 2.195-2.342 3.224-1.87 7.305.53 4.574.67 4.75 3.785 4.75 1.779 0 4.421.933 5.87 2.073 2.466 1.94 2.635 2.6 2.635 10.325 0 7.269-.268 8.504-2.25 10.358-1.309 1.224-3.922 2.238-6.25 2.424l-4 .32-.306 4.789c-.253 3.942.145 5.325 2.25 7.826 2.069 2.459 2.563 4.12 2.595 8.712.035 5.283.259 5.812 3.25 7.69 3.165 1.989 3.215 2.14 3.498 10.648.277 8.319.191 8.707-2.384 10.733-1.669 1.313-4.124 2.102-6.538 2.102H160v11.883c0 11.843.008 11.885 2.47 12.356 1.358.26 2.251.118 1.983-.314-.267-.433-.023-1.073.543-1.423.566-.349 3.496 1.473 6.512 4.049 6.451 5.511 6.219 5.577 16.3-4.598 9.568-9.658 16.266-20.711 14.826-24.466-.731-1.903-12.543-2.094-14.657-.237-.783.688-.536.125.55-1.25 1.085-1.375 2.231-2.725 2.546-3 .567-.495 1.967-3.565 2.509-5.5 2.314-8.268 3.311-12.543 3.288-14.103-.016-1.043.046-4.837.136-8.43.164-6.505-2.208-20.607-4.042-24.035-.53-.99-.964-3.614-.964-5.831 0-3.166-.482-4.282-2.25-5.201-2.745-1.429-4.49-3.262-7.75-8.143-1.375-2.059-2.838-3.746-3.25-3.75-.412-.004-.75-.644-.75-1.423s-1.318-2-2.928-2.712c-1.61-.713-2.71-1.649-2.443-2.08.266-.431-.667-1.308-2.073-1.948-1.406-.641-2.556-1.768-2.556-2.505 0-.911.622-.717 1.947.608 3.708 3.708 8.396 5.408 15.76 5.714 6.407.266 7.373.063 8.699-1.83 1.272-1.817 1.293-2.511.138-4.73-3.355-6.446-12.367-11.447-20.793-11.539-5.193-.056-5.838-.304-6.671-2.562-.695-1.884-.942-.418-1.001 5.945M195 60.5c3.543 3.575 6.667 6.5 6.942 6.5.275 0-2.399-2.925-5.942-6.5s-6.667-6.5-6.942-6.5c-.275 0 2.399 2.925 5.942 6.5M88.667 55.667c-1.008 1.007-.77 11.622.298 13.311 1.029 1.627 4.977 1.732 47.785 1.272 15.54-.167 23.25-.601 23.25-1.309 0-.582-.445-.784-.989-.448-.566.35-.734-.051-.393-.941.517-1.347-.636-2.062-2.099-1.302-.264.138-1.15-.706-1.969-1.875-.819-1.169-2.627-2.191-4.019-2.271-4.868-.28-5.337-.447-4.848-1.719.304-.795-.778-1.648-2.846-2.244-2.768-.797-1.769-.976 5.854-1.051 5.055-.049 9.469-.54 9.809-1.09.697-1.129-68.707-1.46-69.833-.333M90 59.622c0 2.093.274 2.396 1.355 1.498.745-.618 3.108-1.767 5.25-2.552l3.895-1.427-5.25-.071c-5.017-.067-5.25.047-5.25 2.552m22.031.304c-1.939 4.681-.673 6.714 4.634 7.442 7.816 1.071 20.83.737 22.135-.568 1.657-1.657 1.501-4.411-.415-7.335-1.481-2.26-2.244-2.465-9.167-2.465-4.153 0-7.242.309-6.864.687.687.687-6.147 8.313-7.45 8.313-1.398 0-1.818-3.095-.741-5.459.75-1.644 2.12-2.562 4.223-2.828 2.618-.33 2.456-.418-1.015-.553-3.687-.143-4.258.153-5.34 2.766m12.037.978c-1.137 1.598-2.068 3.123-2.068 3.389 0 .267 3.375.485 7.5.485 7.944 0 8.739-.595 6.465-4.844-.783-1.462-2.109-1.934-5.432-1.934-3.712 0-4.719.453-6.465 2.904M73.41 62.145C63.268 64.4 51.575 75.011 52.198 81.396c.278 2.854.629 3.128 4.359 3.402 2.969.218 5.565-.495 9.681-2.66 4.711-2.478 5.904-2.755 7.345-1.701 1.204.881 1.375 1.471.568 1.969-.633.392-1.151 1.569-1.151 2.617s-1.499 2.934-3.33 4.191c-1.832 1.257-4.867 4.046-6.746 6.198-3.312 3.793-3.412 4.155-3.302 12 .081 5.794-.174 7.637-.898 6.5-.802-1.261-1.479-1.368-3.283-.516-1.963.926-2.224 1.688-1.914 5.588.198 2.484.438 4.741.535 5.016.096.275.122.838.056 1.25-.065.413.387.75 1.004.75.732 0 .645.589-.25 1.692-1.171 1.444-1.164 1.567.048.836 1.034-.623 1.263-.447.842.649-.317.827-.194 2.123.273 2.88.468.757.506 1.841.085 2.409-1.001 1.351-1.22 5.714-.256 5.118.408-.252.747.526.753 1.729.018 3.459 1.51 7.727 2.49 7.121.491-.304.893.349.893 1.45 0 1.102.788 2.591 1.751 3.309 2.345 1.751 7.286 8.437 6.682 9.041-.265.265.205 1.05 1.043 1.746S71 165.619 71 166.077c0 .458 1.013 1.92 2.25 3.25C82.702 179.486 86.436 183 87.78 183c.854 0 1.26.293.902.652-1.201 1.2 4.5 3.348 8.888 3.348h4.341l-1.342-3.75c-2.409-6.73-3.763-9.03-5.933-10.08l-2.136-1.035 2.191-.067c3.005-.093 3.409-1.132 2.098-5.403-1.092-3.559-1.264-3.665-5.957-3.665-7.853 0-10.491-4.041-9.606-14.716.378-4.548.984-6.068 3.176-7.953 2.374-2.043 3.753-2.331 11.141-2.331h8.432l-2.541-5.75c-2.969-6.719-3.269-7.085-6.18-7.529-3.708-.566-3.645-1.557.144-2.268 4.134-.775 4.181-.941 1.921-6.683-2.026-5.146-2.783-5.735-7.395-5.755C83.896 109.989 82 106.962 82 97.36c0-7.081.269-8.264 2.314-10.186 1.9-1.784 3.513-2.174 9-2.174 7.299 0 7.349-.055 5.528-6.134-1.15-3.837-1.198-3.866-6.3-3.866-2.828 0-5.714-.562-6.413-1.25-1.02-1.003-1.633-.808-3.099.986-1.582 1.936-1.911 2.017-2.451.609-.344-.895.061-2.673.898-3.951 1.62-2.472 1.97-6.169.758-8.009-1.165-1.769-4.401-2.223-8.825-1.24m131.101 9.232c.946 1.443 1.908 2.623 2.139 2.623.724 0-1.605-3.854-2.759-4.567-.604-.374-.325.501.62 1.944M77.583 75.866c-.431.697-.513 1.537-.183 1.867.895.895 1.871-.421 1.387-1.871-.338-1.016-.574-1.016-1.204.004M101 75.514c0 .282.45 1.295 1 2.25.549.955 1.438 2.973 1.975 4.486l.975 2.75H157v-4.393c0-3.083-.472-4.574-1.582-5-1.911-.734-54.418-.824-54.418-.093M87.667 90.667c-1.296 1.295-.718 13.046.7 14.222.98.814 12.51 1.06 40.75.873l39.383-.262.299-6.91c.211-4.853-.087-7.156-1-7.735-1.539-.977-79.162-1.159-80.132-.188m27.583 1.461c-.687.7-1.243 2.645-1.235 4.322.029 5.771.697 6.05 14.483 6.05 10.087 0 12.76-.297 13.522-1.5 1.433-2.264 1.174-4.554-.77-6.807-1.495-1.732-3.424-2.123-13.25-2.682-8.698-.496-11.805-.345-12.75.617m6.05.677c-3.121.227-4.359.805-4.817 2.25-.802 2.526.301 5.945 1.917 5.945 1.165 0 8.243-7.901 7.45-8.316-.192-.101-2.24-.047-4.55.121m5.723 3.391-2.014 3.304 7.116.296c3.914.163 7.334.079 7.6-.187s.064-1.75-.449-3.296c-.821-2.476-1.49-2.849-5.586-3.117-4.329-.283-4.794-.074-6.667 3M61.158 107c0 1.375.227 1.938.504 1.25.278-.687.278-1.812 0-2.5-.277-.687-.504-.125-.504 1.25m38.009 4.755c.183.415 1.182 2.89 2.219 5.5l1.886 4.745h21.471c16.775 0 21.362-.273 20.974-1.25-.274-.687-1.271-3.162-2.216-5.5l-1.718-4.25h-21.475c-11.811 0-21.325.34-21.141.755M145 112c0 .55.412 1 .917 1 .504 0 1.554 1.912 2.333 4.25 1.323 3.97 1.658 4.25 5.083 4.25 2.017 0 3.667-.338 3.667-.75V111h-6c-3.333 0-6 .444-6 1m-42 14.478c0 .263 1.219 2.963 2.708 6l2.709 5.522h20.753l-3.802-5.25c-2.091-2.887-4.267-5.581-4.835-5.985-1.124-.799-17.533-1.068-17.533-.287m23.343.973c.327.853 2.071 3.558 3.876 6.011l3.281 4.46 13.8.039 13.8.039-.3-5.75-.3-5.75-17.376-.3c-15.363-.264-17.307-.12-16.781 1.251M87.419 144.35c-.29.756-.39 4.024-.223 7.262l.304 5.888 4.5.676c5.761.865 68.72 1.03 72.916.191l3.166-.633-.291-7.117-.291-7.117-39.777-.261c-32.984-.217-39.867-.027-40.304 1.111m27.14.983c-1.226.897-1.614 2.358-1.382 5.207l.323 3.96h13.986c12.756 0 14.018-.161 14.339-1.829.586-3.043-.718-6.502-2.686-7.127-4.117-1.306-22.861-1.468-24.58-.211m2.191.747c-1.974 1.15-2.359 5.426-.587 6.521.68.42 2.403-.67 4.15-2.626 2.782-3.113 2.857-3.395 1.087-4.089-2.523-.99-2.625-.986-4.65.194m7.966 2.824c-.944 1.598-1.716 3.069-1.716 3.27 0 .452 15.359-.26 15.87-.736.204-.19.083-1.491-.269-2.891-.592-2.361-1.061-2.547-6.404-2.547-5.304 0-5.903.233-7.481 2.904M56 158.882c0 .55.45 1.278 1 1.618.55.34 1 .168 1-.382s-.45-1.278-1-1.618c-.55-.34-1-.168-1 .382m44 5.168c0 .577.69 2.384 1.534 4.016l1.534 2.967 26.145-.266 26.144-.267.779-2.914c.428-1.603.547-3.291.262-3.75-.788-1.276-56.398-1.065-56.398.214m4.719 17.45 2.698 5.5h46.333l.625-3.125c.344-1.719.625-4.194.625-5.5V176h-52.978l2.697 5.5m63.296 24.628c-.013 13.298-.261 15.832-1.667 17-1.307 1.085-9.297 1.482-38.25 1.896l-36.598.525 37.095.225c34.247.209 37.212.092 38.622-1.524 1.156-1.325 1.661-5.287 2.076-16.318.305-8.066.145-15.207-.356-16-.564-.892-.912 4.465-.922 14.196M97.098 193l-3.403.5.22 8.984C94.199 214.073 95 214.96 95 203.685v-8.648l29.25.038c28.984.038 38.218-.509 37.172-2.201-.553-.894-58.148-.782-64.324.126m132.774 10.75c-1.243 1.586-1.208 1.621.378.378 1.666-1.307 2.195-2.128 1.372-2.128-.207 0-.995.787-1.75 1.75m-93.945 1.5c1.172 1.556.89 1.936-2.555 3.436-2.129.927-4.322 1.57-4.872 1.428-.592-.152-.562.19.073.838.776.791 2.072.677 4.682-.414 4.614-1.928 5.433-3.319 3.168-5.384-1.698-1.549-1.73-1.543-.496.096m-15.24 2.555c-1.478 1.542-2.677 3.455-2.665 4.25.022 1.44 2.908-1.595 5.042-5.305 1.433-2.491.715-2.172-2.377 1.055m105.237.945-2.424 2.75 2.75-2.424c1.512-1.334 2.75-2.571 2.75-2.75 0-.785-.81-.146-3.076 2.424m-9.841 10.361c-9.354 8.861-17.379 14.595-29.239 20.891-10.299 5.467-11.413 6.81-1.565 1.888 10.356-5.176 21.755-13.244 30.721-21.741 4.675-4.431 8.275-8.059 8-8.061-.275-.002-3.838 3.158-7.917 7.023m-178.125-.861c2.452 2.613 4.59 4.75 4.75 4.75.751 0-.043-.898-4.458-5.042L33.5 213.5l4.458 4.75M46 225.378c0 .207.788.995 1.75 1.75 1.586 1.243 1.621 1.208.378-.378-1.307-1.666-2.128-2.195-2.128-1.372m8 6c0 .207.788.995 1.75 1.75 1.586 1.243 1.621 1.208.378-.378-1.307-1.666-2.128-2.195-2.128-1.372m4 3.052c0 .275.9.981 2 1.57 1.1.589 2 .845 2 .57s-.9-.981-2-1.57c-1.1-.589-2-.845-2-.57m5 3c0 .275.9.981 2 1.57 1.1.589 2 .845 2 .57s-.9-.981-2-1.57c-1.1-.589-2-.845-2-.57M75 244c.825.533 1.95.969 2.5.969s.325-.436-.5-.969c-.825-.533-1.95-.969-2.5-.969s-.325.436.5.969m99 2c-.825.533-1.05.969-.5.969s1.675-.436 2.5-.969c.825-.533 1.05-.969.5-.969s-1.675.436-2.5.969m-13.187 4.683c.721.289 1.584.253 1.916-.079.332-.332-.258-.568-1.312-.525-1.165.048-1.402.285-.604.604m-63 1c.721.289 1.584.253 1.916-.079.332-.332-.258-.568-1.312-.525-1.165.048-1.402.285-.604.604m59 0c.721.289 1.584.253 1.916-.079.332-.332-.258-.568-1.312-.525-1.165.048-1.402.285-.604.604m-55.063.979c.688.278 1.813.278 2.5 0 .688-.277.125-.504-1.25-.504s-1.937.227-1.25.504m50 0c.688.278 1.813.278 2.5 0 .688-.277.125-.504-1.25-.504s-1.937.227-1.25.504m-44.481 1.031c.973.254 2.323.237 3-.037.677-.274-.119-.481-1.769-.461-1.65.02-2.204.244-1.231.498m39 0c.973.254 2.323.237 3-.037.677-.274-.119-.481-1.769-.461-1.65.02-2.204.244-1.231.498m-31.005 1.025c1.52.229 3.77.223 5-.014 1.23-.237-.014-.425-2.764-.418-2.75.008-3.756.202-2.236.432m19.986-.002c1.512.229 3.988.229 5.5 0s.275-.416-2.75-.416-4.262.187-2.75.416" fill="#1976D2" fill-rule="evenodd"/></svg>