<svg xmlns="http://www.w3.org/2000/svg" width="256" height="256"><path fill-opacity=".016" d="M0 128.004v128.004l128.25-.254 128.25-.254.254-127.75L257.008 0H0v128.004m.485.496c0 70.4.119 99.053.265 63.672.146-35.38.146-92.98 0-128C.604 29.153.485 58.1.485 128.5" fill="#1976D2" fill-rule="evenodd"/><path fill-opacity=".107" d="M109.52 1.048C46.011 11.005-.516 65.116.088 128.322c.088 9.239 1.448 21.38 1.868 16.678.123-1.375.866 1.1 1.651 5.5 5.096 28.558 15.372 48.665 34.8 68.093 10.844 10.844 20.265 17.706 33.326 24.273 16.815 8.454 31.48 12.091 51.88 12.865 28.266 1.073 52.088-5.677 75.857-21.491 28.186-18.754 49.386-51.151 54.471-83.24.654-4.125 1.609-9.127 2.124-11.116 1.284-4.966 1.231-25.185-.065-24.384-.582.359-1-.634-1-2.376 0-8.39-5.811-27.961-11.954-40.258-5.745-11.5-11.447-19.409-21.223-29.439-4.864-4.99-8.596-9.32-8.293-9.623.302-.303-1.736-2.465-4.53-4.804-2.794-2.339-5.286-4.047-5.538-3.795-.252.252 1.549 1.9 4.003 3.662 2.453 1.762 4.784 3.727 5.178 4.365.68 1.099-2.063-.748-7.643-5.147-1.375-1.084-2.5-2.521-2.5-3.195 0-.673-.625-1.432-1.389-1.686-.926-.309-1.125-.035-.596.821.525.848.397 1.038-.377.56-.644-.398-.94-1.096-.658-1.552 1.626-2.632-24.735-15.206-40.253-19.201C149.094 1.224 145.326.766 131.5.462c-8.8-.193-18.691.07-21.98.586m.065 9.059c-49.54 7.225-91.005 48.379-99.114 98.37-6.375 39.309 6.458 77.143 36.516 107.648 27.736 28.15 73.986 39.68 113.666 28.337 10.861-3.104 30.764-12.787 38.847-18.899 31.286-23.657 48.593-57.831 48.588-95.94-.002-18.338-1.926-27.502-9.782-46.604-15.792-38.4-50.308-65.983-90.783-72.548-9.729-1.578-28.39-1.757-37.938-.364m21.099 36.32c-9.925 5.94-11.069 6.912-13.475 11.448-1.401 2.641-7.627 6.623-34.54 22.093-30.656 17.621-33.027 18.803-35.782 17.843-2.648-.923-4-.448-13.169 4.636C17.998 111.163 19 108.87 19 136.105c0 17.735.32 23.613 1.398 25.697 2.801 5.417 7.723 7.863 12.311 6.119 2.068-.787 3.769-.245 9.946 3.164 6.798 3.753 7.707 4.008 10.37 2.904 2.775-1.149 3.933-.626 23.398 10.576l20.479 11.785.299 3.903c.286 3.732.634 4.092 7.944 8.21l7.646 4.307 9.102-5.135c8.845-4.99 9.102-5.237 9.104-8.755l.003-3.62 35.25-20.306c19.387-11.168 36.005-20.765 36.929-21.326 1.227-.746 2.57-.54 5 .768l3.321 1.789 8.75-5.151 8.75-5.15v-5.989c0-5.605-.192-6.097-2.994-7.692-2.943-1.674-2.993-1.842-3-9.927-.006-8.157.019-8.238 3.04-9.8 2.958-1.529 3.038-1.756 2.75-7.776l-.296-6.2-9-4.909c-4.95-2.701-18.761-10.492-30.691-17.314-20.524-11.737-21.708-12.575-22-15.563-.265-2.713-1.188-3.656-6.537-6.686-4.006-2.269-6.64-4.519-7.382-6.304-1.58-3.8-6.02-6.739-10.044-6.648-2.161.048-6.467 1.943-12.162 5.351m-5.605 35.822c-2.981 1.726-4.894 3.313-4.25 3.527 1.944.648 1.315 2.224-.888 2.224-1.313 0-1.798-.422-1.339-1.166.397-.641-1.939.35-5.191 2.203-23.88 13.609-32.306 18.735-31.733 19.307.363.363 1.452-.057 2.421-.934 1.634-1.479 1.722-1.443 1.215.498-.395 1.508-.08 2.092 1.128 2.092.922 0 1.424.408 1.116.907-.309.498.452.684 1.691.413 1.808-.396 1.956-.283.751.578-1.076.769-1.136 1.076-.211 1.087.71.008 3.595 1.567 6.411 3.464 4.002 2.695 5.524 3.234 6.961 2.465 1.235-.661 1.839-.644 1.839.051 0 .569-.562 1.049-1.25 1.066-.687.017.497 1.105 2.633 2.418 2.136 1.312 4.517 2.143 5.291 1.846.827-.318 1.288 0 1.117.77-.177.796.688 1.334 2.209 1.372 1.685.043 2.391.552 2.167 1.563-.184.825-.034 1.2.333.833.367-.366 1.461.128 2.431 1.098.971.971 3.677 2.07 6.013 2.444 3.194.511 4.108 1.048 3.679 2.165-.452 1.178-.01 1.344 2.144.804 1.492-.375 3.312-1.28 4.045-2.013.732-.732 1.762-1.331 2.29-1.331 1.075 0 14.898-8.087 14.898-8.716 0-.221-.562-.064-1.25.349-.753.452-.668.035.213-1.051.805-.991 1.619-1.337 1.808-.769.197.591 2.474-.073 5.33-1.555 3.395-1.762 4.809-3.049 4.431-4.034-.43-1.123.026-1.301 2.04-.795 2.074.52 2.701.242 3.128-1.389.384-1.47 1.355-2.04 3.476-2.04 1.707 0 2.683-.42 2.324-1-.34-.55.196-1.014 1.191-1.032.995-.017 2.589-.624 3.542-1.347 1.603-1.218 1.548-1.4-.742-2.443-1.905-.868-2.419-.846-2.233.097.133.674.692 1.556 1.242 1.96.55.404.049.741-1.112.75-1.666.012-2.055-.516-1.837-2.496.292-2.662-2.137-4.653-6.009-4.926-1.123-.079-1.95-.626-1.838-1.214.112-.589-.93-1.586-2.314-2.217-1.483-.676-2.262-.733-1.895-.14.346.56-.348 1.008-1.558 1.008-1.744 0-1.952-.277-1.034-1.383.92-1.108.305-1.882-3.091-3.887-4.117-2.432-8.189-2.707-5.879-.397 1.944 1.944 1.105 3.011-.924 1.175-1.771-1.603-1.819-1.927-.433-2.94 1.293-.945-.14-2.107-8.458-6.853-5.507-3.143-10.15-5.69-10.316-5.659-.166.031-2.741 1.468-5.723 3.193M131 82c0 .55.423 1 .941 1s1.219-.45 1.559-1c.34-.55-.084-1-.941-1S131 81.45 131 82m8.861 3.951c1.298 1.127 2.761 2.049 3.25 2.049 1.748 0 .837-.974-2.361-2.524l-3.25-1.575 2.361 2.05M124 88c0 1.264 2.043 1.264 4 0 1.169-.755.893-.973-1.25-.985-1.513-.008-2.75.435-2.75.985m-10.32 1.873c-2.301 1.516-2.523 1.973-1.207 2.478 1.29.495 1.394 1.029.52 2.662-.601 1.124-1.446 1.825-1.877 1.559-.43-.266-.783.242-.783 1.129 0 1.191.584.934 2.231-.98 1.227-1.426 2.477-2.347 2.778-2.046.981.981-5.329 5.544-6.857 4.958-1.656-.636-2.052.898-.482 1.869.665.411.669 1.242.01 2.474-1.155 2.157-.86 9.546.428 10.721.498.455.546.153.11-.697-.424-.825.364-.15 1.75 1.5 1.386 1.65 2.298 3.224 2.028 3.498-.271.275-1.126-.368-1.9-1.427-1.586-2.168-3.004-1.511-2.058.953.409 1.065 1.55 1.503 3.373 1.293 1.551-.178 3.335.339 4.08 1.183.728.825 1.043.943.698.261-.405-.801-.1-1.036.863-.667.819.314 1.244 1.209.945 1.989-.299.779-.046 1.417.563 1.417s1.107-.45 1.107-1 .787-.964 1.75-.921c1.045.047 1.247.282.5.583-1.846.745-1.518 2.327.5 2.408 1.496.06 1.46.195-.25.93-1.1.473-1.55.884-1 .915 1.354.074 8.294-2.375 9.148-3.23 1.333-1.333 7.404-.714 7.99.815.317.825.978 1.5 1.469 1.5 1.36 0 1.065-2.764-.357-3.338-1.244-.502.078-.76 5.566-1.088 1.548-.093 3.236-.822 3.75-1.621.813-1.265 1.069-1.259 1.976.047.926 1.333 1.024 1.333.881 0-.365-3.417.112-5.096 1.247-4.395.809.5.962.132.497-1.191-.629-1.79-.584-1.801.691-.164.749.963 1.65 1.75 2.002 1.75 1.061 0 .721-1.771-.61-3.179-.687-.726-1.271-3.21-1.297-5.518-.029-2.584-.739-4.961-1.848-6.187-1.032-1.14-1.476-2.516-1.039-3.223.527-.853.259-1.04-.87-.607-.898.345-1.941.127-2.318-.484-.416-.673-.232-.83.467-.397.635.392 1.155.252 1.155-.311 0-1.116-3.192-3.094-4.993-3.094-.619 0-.873.408-.565.907.309.499-1.056.41-3.033-.196-3.359-1.031-3.473-1.196-1.751-2.532 1.721-1.335 1.681-1.39-.606-.846-1.346.321-3.021.108-3.72-.473C133.95 88.714 124 89.65 124 90.926c0 .406 2.588.614 5.75.461l5.75-.277-6.406.901c-3.523.496-7.685 1.348-9.25 1.893-2.272.793-2.844.701-2.844-.456 0-.828-.963-1.458-2.25-1.47l-2.25-.022L115 90c3.177-2.485 2.374-2.563-1.32-.127m32.987-.206c-.367.366-.667 1.131-.667 1.7 0 .626.466.567 1.183-.15.651-.651.951-1.416.667-1.7-.284-.284-.817-.217-1.183.15M109 93c0 .55.477 1 1.059 1s.781-.45.441-1-.816-1-1.059-1-.441.45-.441 1m46.226 1.579c.95.991 1.942 1.587 2.205 1.324.263-.263-.514-1.074-1.726-1.803-2.107-1.265-2.128-1.243-.479.479M106 95c0 .55.477 1 1.059 1s.781-.45.441-1-.816-1-1.059-1-.441.45-.441 1m-5.308 2.434c-1.637 1.241-1.475 1.362 1.709 1.272 2.77-.079 3.287-.377 2.435-1.403-1.338-1.612-1.866-1.596-4.144.131m-4.917 2.934c-.753.753-2.366 1.685-3.586 2.072-1.22.387-1.956 1.129-1.635 1.648.693 1.12 6.153-1.882 6.883-3.785.644-1.678.058-1.655-1.662.065M155 102.75c0 1.173.492 2.436 1.094 2.808.602.372.892 1.735.645 3.029-.248 1.294-.065 2.115.405 1.824 1.356-.838.935-5.722-.676-7.852-1.439-1.902-1.468-1.899-1.468.191m8-.512c0 .851.739 1.832 1.643 2.179 2.463.944 2.618.129.363-1.911-1.696-1.535-2.006-1.576-2.006-.268m7 1.762c0 .55.45 1 1 1s1-.45 1-1-.45-1-1-1-1 .45-1 1m-82.541 1.067c-.363.586-.445 1.281-.183 1.543s.743-.218 1.069-1.067c.676-1.762.1-2.072-.886-.476M.382 127.5c.002 6.6.164 9.17.359 5.711.196-3.459.195-8.859-.003-12S.38 120.9.382 127.5M157.5 119c.34.55.816 1 1.059 1s.441-.45.441-1-.477-1-1.059-1-.781.45-.441 1m-33.5 5.019c0 .605 1.117.751 2.75.359 3.926-.941 4.058-1.378.417-1.378-1.742 0-3.167.459-3.167 1.019m11.813.664c.721.289 1.584.253 1.916-.079.332-.332-.258-.568-1.312-.525-1.165.048-1.402.285-.604.604m-8 2c.721.289 1.584.253 1.916-.079.332-.332-.258-.568-1.312-.525-1.165.048-1.402.285-.604.604m4.437.006c.963.252 2.537.252 3.5 0 .963-.251.175-.457-1.75-.457s-2.713.206-1.75.457M143 127c0 .55.477 1 1.059 1s.781-.45.441-1-.816-1-1.059-1-.441.45-.441 1m-3 2.059c0 .582-.52.738-1.155.346-.699-.433-.883-.276-.467.397.377.611 1.347.857 2.154.547 1.657-.635 1.998-2.349.468-2.349-.55 0-1 .477-1 1.059m-17.5.941c-.34.55-.141 1 .441 1s1.059-.45 1.059-1-.198-1-.441-1-.719.45-1.059 1" fill="#1976D2" fill-rule="evenodd"/><path fill-opacity=".339" d="M113.643 1.095C84.586 4.161 55.881 18.528 35.48 40.214 21.371 55.212 10.535 74.404 5.392 93.5c-2.477 9.198-2.701 11.604-2.792 30-.139 27.93 2.781 41.326 13.951 64 11.587 23.518 29.876 41.862 54.074 54.236 19.199 9.817 36.133 13.779 58.375 13.656 39.617-.219 74.173-17.015 99.122-48.18 32.732-40.886 36.518-99.438 9.24-142.887-14.702-23.418-33.269-39.613-60.549-52.815-12.955-6.27-22.594-9.003-36.944-10.476-11.225-1.151-14.814-1.143-26.226.061m3.286 7.979C60.297 13.763 13.025 61.33 9.178 117.496c-.992 14.487.227 29.66 3.313 41.258 7.25 27.241 26.708 54.762 49.811 70.451 35.495 24.104 82.368 26.496 121.698 6.21 41.464-21.386 67.415-66.476 64.648-112.325-.73-12.099-2.406-19.981-6.823-32.09-7.137-19.568-16.479-34.562-29.738-47.732-14.375-14.279-33.87-25.58-52.905-30.669-8.366-2.237-12.746-2.856-28.182-3.988-2.475-.182-8.807.027-14.071.463M130 47.295c-8.838 5.25-10.675 6.775-11.604 9.636-1.015 3.127-3.775 4.941-34.5 22.677C52.642 97.651 50.243 98.854 46.5 98.376c-3.469-.444-5.195.173-13 4.647-14.975 8.584-13.947 6.307-14.307 31.705-.255 18.044-.036 22.393 1.302 25.898 2.185 5.72 5.516 7.781 11.295 6.989 4.01-.549 5.268-.178 11.428 3.373 6.504 3.75 7.087 3.906 9.658 2.576 2.651-1.371 3.392-1.035 23.431 10.587C96.84 196.061 97 196.18 97 199.564c0 3.6.954 4.451 11.645 10.386l4.146 2.301 8.598-4.876c8.239-4.671 8.598-5.022 8.604-8.393l.007-3.517 37.69-21.723c35.931-20.71 37.795-21.654 39.964-20.233 1.252.82 2.793 1.491 3.426 1.491s4.921-2.138 9.529-4.75l8.378-4.75.006-5.581c.006-4.971-.274-5.731-2.558-6.954-1.688-.903-2.799-1.024-3.25-.353-.377.561-3.275 2.487-6.44 4.28-3.165 1.793-6.325 3.788-7.023 4.434-.698.646-1.934 1.322-2.746 1.504-1.307.291-45.093 25.344-80.099 45.829l-12.623 7.387-6.558-3.773a35797.616 35797.616 0 0 1-37.627-21.746L39 152.553v-11.335c0-6.235.337-11.142.75-10.906.413.237 16.819 9.713 36.46 21.059C95.85 162.717 112.165 172 112.465 172c.834 0 22.531-12.241 59.912-33.802 31.081-17.928 34.103-19.455 36.61-18.509 2.414.911 3.74.435 11.359-4.079l8.626-5.11.014-5.571.014-5.571-8.75-4.835c-4.812-2.659-18.988-10.713-31.5-17.896-21.79-12.51-22.75-13.189-22.752-16.094-.002-2.667-.679-3.386-5.597-5.956-3.477-1.817-6.453-4.283-7.862-6.515-3.026-4.794-4.724-6.078-8.7-6.581-2.72-.344-5.285.734-13.839 5.814m20.029 19.666c-.809.512-1.211 1.191-.893 1.509.319.318 1.148-.108 1.844-.946 1.443-1.738 1.166-1.902-.951-.563m-45.26 26.313c-15.073 8.671-24.727 14.812-24.72 15.726.011 1.523 48.369 30 50.944 30 2.602 0 50.978-28.478 50.962-30-.017-1.56-48.503-30.02-51.068-29.976-.763.013-12.516 6.426-26.118 14.25m14.87 1.668c-14.456 5.796-15.518 18.056-2.132 24.605 4.198 2.054 6.918 2.65 12.198 2.671 9.886.039 15.013-1.673 20.028-6.688 4.99-4.989 5.492-8.386 2.016-13.632-5.149-7.771-21.334-11.277-32.11-6.956m93.111 13.138c-.963.561-1.714 1.785-1.671 2.72.064 1.386.187 1.423.662.2.321-.825 1.298-2.048 2.171-2.718 1.931-1.482 1.241-1.601-1.162-.202M53.507 122.989c-.35.566.051.734.941.393 1.732-.665 2.049-1.382.611-1.382-.518 0-1.216.445-1.552.989M50 125.059c0 .582.45.781 1 .441s1-.816 1-1.059-.45-.441-1-.441-1 .477-1 1.059m164.441 17.496c-1.864 1.494-1.852 1.512.309.465 1.238-.6 2.25-1.3 2.25-1.555 0-.765-.519-.544-2.559 1.09M112 161.059c0 .582.45.781 1 .441s1-.816 1-1.059-.45-.441-1-.441-1 .477-1 1.059m.014 40.355c.648.648 1.324.648 1.972 0 .647-.647.309-.985-.986-.985s-1.633.338-.986.985" fill="#1976D2" fill-rule="evenodd"/><path fill-opacity=".345" d="M110.635 2.126C84.269 5.544 60.082 17.227 40.64 35.936 29.883 46.288 25.304 52.488 18.126 66.418 7.225 87.577 2.715 105.705 2.806 128c.114 27.92 7.254 50.495 23.563 74.5 17.91 26.361 47.669 45.311 80.016 50.952 11.255 1.963 31.819 1.99 42.905.057 26.049-4.543 50.169-17.022 68.683-35.536 37.081-37.081 47.495-93.128 25.963-139.733C225.233 37.757 188.067 9.694 145 3.537c-13.412-1.917-26.358-2.448-34.365-1.411m-1.85 7.425C51.743 18.433 8.012 69.834 8.012 128c0 44.153 26.708 88.254 65.507 108.168 19.21 9.86 33.355 13.204 55.481 13.115 24.917-.1 44.955-6.109 66.021-19.799 10.354-6.728 27.408-23.94 34.428-34.745C243.28 173.449 249 154.081 249 128.538c0-13.919-1.886-24.254-6.881-37.711-7.675-20.677-15.816-33.746-29.519-47.383-27.767-27.635-65.304-39.89-103.815-33.893M121.5 57.685c-1.65.883-3.225 1.908-3.5 2.278-.275.37-15.64 9.409-34.144 20.086L50.212 99.464l2.394 2.845c1.317 1.564 2.394 3.248 2.394 3.742 0 .494 2.946 2.592 6.546 4.663 6.242 3.59 6.532 3.925 6.25 7.201-.271 3.147-.989 3.845-8.525 8.286l-8.229 4.849-8.59-4.909c-6.171-3.526-9.064-5.836-10.271-8.2-2.187-4.282-4.607-5.793-6.931-4.328-1.559.983-1.779 3.346-2.02 21.628-.157 11.973.147 21.62.73 23.154.55 1.446 2.195 3.174 3.657 3.84 2.316 1.056 2.857.951 4.225-.818 1.544-1.996 1.738-1.929 12.417 4.278C50.226 169.163 55.312 172 55.562 172s9.062 4.988 19.582 11.083C96.93 195.707 97 195.741 97 193.729c0-.817.997-2.147 2.215-2.956 2.516-1.67 7.023 1.271-37.203-24.279L39.5 153.489l-.283-11.864c-.228-9.57-.024-11.765 1.053-11.352.735.282 13.8 7.726 29.033 16.541L97 162.842l.028-5.671.028-5.671 8.354-4.75c4.594-2.613 8.819-4.75 9.387-4.75.568 0 4.334 1.953 8.368 4.34l7.335 4.341v5.161c0 2.839.325 5.161.723 5.16.398-.001 17.61-9.745 38.25-21.652 42.681-24.623 41.872-23.881 32.027-29.437-5.005-2.824-5.5-3.415-5.5-6.555 0-2.797.572-3.774 3.021-5.155 1.661-.936 5.224-3.053 7.918-4.703l4.897-3-22.571-13c-12.414-7.15-22.922-12.897-23.352-12.772-.429.125-4.223 2.263-8.43 4.75-4.206 2.487-7.895 4.522-8.197 4.522-.302 0-4.54-2.284-9.417-5.075-6.14-3.514-8.869-5.645-8.869-6.928 0-1.661-4.343-6.057-5.885-5.957-.338.022-1.965.762-3.615 1.645M106 92.118c-13.475 7.769-25.159 14.746-25.964 15.504-1.286 1.21-1.286 1.553 0 2.816C81.585 111.96 129.991 140 131.069 140c.745 0 48.885-27.736 50.622-29.166.654-.539.95-1.607.655-2.374-.452-1.179-46.175-28.321-50.409-29.923-.79-.299-12.462 5.812-25.937 13.581m19.021 3.944c-11.98 5.042-4.035 17.039 9.591 14.483 7.822-1.467 10.763-8.71 5.212-12.836-3.093-2.299-11.13-3.193-14.803-1.647M178 159.597a51662.565 51662.565 0 0 1-39.907 23.142c-9.787 5.662-11.101 6.714-9.25 7.398 1.186.439 2.157 1.488 2.157 2.331 0 .842.222 1.532.493 1.532s14.906-8.35 32.523-18.555c17.616-10.206 35.282-20.28 39.257-22.387 7.538-3.996 9.268-6.458 6.145-8.742-.99-.724-2.052-1.303-2.359-1.288-.308.015-13.384 7.472-29.059 16.569" fill="#1976D2" fill-rule="evenodd"/></svg>